<svg clip-rule="evenodd" fill-rule="evenodd" height="297.04mm" image-rendering="optimizeQuality" shape-rendering="geometricPrecision" text-rendering="geometricPrecision" viewBox="0 0 210697 297040" width="210.7mm" xmlns="http://www.w3.org/2000/svg" xmlns:xlink="http://www.w3.org/1999/xlink"><radialGradient id="a" cx="101920" cy="190020" gradientTransform="matrix(.8862 0 0 1.4 11599 -76009)" gradientUnits="userSpaceOnUse" r="90226"><stop offset="0" stop-color="#66bbe9"/><stop offset=".49" stop-color="#44aee3"/><stop offset=".729" stop-color="#72cdf4"/><stop offset=".729" stop-color="#3eb1e5"/><stop offset="1" stop-color="#16a8e1"/></radialGradient><radialGradient id="b" cx="138130" cy="190520" gradientTransform="matrix(.58818 0 0 1.1111 56885 -21170)" gradientUnits="userSpaceOnUse" r="36428"><stop offset="0" stop-color="#6ecacf"/><stop offset="1" stop-color="#fefefe"/></radialGradient><linearGradient id="c" gradientUnits="userSpaceOnUse" x1="48256" x2="162460" y1="207090" y2="207090"><stop offset="0" stop-color="#0b8bc3"/><stop offset=".6" stop-color="#60c9e1"/><stop offset="1" stop-color="#a2dcf1"/></linearGradient><path d="m0 0h210700v297040h-210700z" fill="none"/><g fill-rule="nonzero"><path d="m105350 58292c14278 60151 57113 90226 57113 120300 0 30075-14279 60150-57113 60150-42835 0-57113-30075-57113-60150 0-30076 42835-60151 57113-120300z" fill="url(#a)"/><path d="m162360 177930c44 340 99 706 96 1044-180 21687-6872 38648-20814 49128-9015 6777-20963 10522-36298 10643-36307 288-51996-21338-56047-46462-730-4524-1805-20621-247-16000 335 993 755 1949 1129 2913 7432 19146 14354 35363 37447 35384 42024 40 72900-50839 74734-36650z" fill="url(#c)"/><path d="m130380 145490c1840 9379 14826 23967 19779 33753 5412 10694-779 26290-13958 26290-11903 0-15870-10110-15870-20220s6081-19603 10049-39823z" fill="url(#b)"/></g></svg>